Coordinates
version=1
nRows=14
nColumns=33
inDegrees=yes

Units are S.I. units (second, meters, Newtons, ...)
Angles are in degrees.

endheader
time	ground_thorax_rot_x	ground_thorax_rot_y	ground_thorax_rot_z	ground_thorax_tx	ground_thorax_ty	ground_thorax_tz	clav_prot_r	clav_elev_r	scapula_abduction_r	scapula_elevation_r	scapula_upward_rot_r	scapula_winging_r	shoulder_elv_r	plane_of_elev_r	axial_rot_r	elbow_flexion_r	pro_sup_r	wrist_flex_r	wrist_dev_r	clav_prot_l	clav_elev_l	scapula_abduction_l	scapula_elevation_l	scapula_upward_rot_l	scapula_winging_l	shoulder_elv_l	plane_of_elev_l	axial_rot_l	elbow_flexion_l	pro_sup_l	wrist_flex_l	wrist_dev_l
      0.01000000	      3.08307491	     -9.87599015	      9.34192688	     -0.11762876	      1.03275719	      0.01182288	      1.99416515	     -8.45372091	      3.66834459	     -1.78425157	      0.45247913	      0.51532683	     31.99630843	      9.94359624	     18.35684854	     53.01540341	     43.29695039	      7.87173532	     18.44287542	      1.09250193	    -16.36305222	      2.66407912	      2.56084150	    -17.98297795	     -7.55691907	     50.96700557	      4.09545756	     -1.50693194	     58.79679097	     45.33689001	     13.67196604	     -9.49220219
      0.02000000	      3.08265525	     -9.87566357	      9.34204634	     -0.11766177	      1.03271826	      0.01185534	      1.99404614	     -8.45362479	      3.66840026	     -1.78433179	      0.45236952	      0.51546760	     31.99636462	      9.94370653	     18.35682570	     53.01544075	     43.29677193	      7.87157343	     18.44288414	      1.09216205	    -16.36427703	      2.66377329	      2.55976564	    -17.98277781	     -7.55683369	     50.96685567	      4.09547754	     -1.50692127	     58.79680231	     45.33704106	     13.67183878	     -9.49229087
      0.03000000	      3.08253120	     -9.87527011	      9.34234376	     -0.11767276	      1.03270444	      0.01186599	      1.99412552	     -8.45373869	      3.66843013	     -1.78431200	      0.45245325	      0.51559472	     31.99633518	      9.94388783	     18.35681455	     53.01550658	     43.29670115	      7.87152005	     18.44288179	      1.09240388	    -16.36321052	      2.66390646	      2.56097767	    -17.98329197	     -7.55660470	     50.96690080	      4.09553759	     -1.50688174	     58.79682511	     45.33709330	     13.67178418	     -9.49231973
      0.04000000	      3.08168236	     -9.87066209	      9.34605394	     -0.11775431	      1.03260472	      0.01193322	      1.99449222	     -8.45420277	      3.66915890	     -1.78513011	      0.45299972	      0.51676568	     31.99587304	      9.94605045	     18.35670693	     53.01628120	     43.29612941	      7.87113557	     18.44283285	      1.09228692	    -16.36353579	      2.66394193	      2.56140746	    -17.98247517	     -7.55591362	     50.96785200	      4.09626788	     -1.50638336	     58.79710003	     45.33747836	     13.67132006	     -9.49252099
      0.05000000	      3.07633796	     -9.84347773	      9.37222543	     -0.11791180	      1.03245016	      0.01203292	      1.99501039	     -8.45812873	      3.67200750	     -1.78910669	      0.45591300	      0.51630204	     31.99362251	      9.95877743	     18.35607450	     53.02008533	     43.29286319	      7.86869230	     18.44259905	      1.09238897	    -16.36421549	      2.66191414	      2.56424146	    -17.97414509	     -7.55594150	     50.97611769	      4.10270767	     -1.50378673	     58.79892700	     45.33965878	     13.66856116	     -9.49369933
      0.06000000	      3.07624953	     -9.84323898	      9.37219559	     -0.11791115	      1.03244676	      0.01201994	      1.99510175	     -8.45761362	      3.67192200	     -1.78947297	      0.45557612	      0.51626628	     31.99356124	      9.95866778	     18.35612484	     53.01998744	     43.29281676	      7.86862407	     18.44261951	      1.09242475	    -16.36353593	      2.66179988	      2.56494461	    -17.97451163	     -7.55577808	     50.97618680	      4.10268349	     -1.50382060	     58.79885634	     45.33971467	     13.66852923	     -9.49372371
      0.07000000	      3.07566198	     -9.84252028	      9.37213538	     -0.11792382	      1.03242004	      0.01198249	      1.99511629	     -8.45800402	      3.67179484	     -1.78836244	      0.45552570	      0.51631190	     31.99343429	      9.95834908	     18.35625702	     53.01968910	     43.29267859	      7.86841415	     18.44267743	      1.09247601	    -16.36419423	      2.66142879	      2.56439500	    -17.97440210	     -7.55560323	     50.97631147	      4.10262077	     -1.50393042	     58.79866457	     45.33988018	     13.66843239	     -9.49380153
      0.08000000	      3.07532347	     -9.84239212	      9.37226170	     -0.11792626	      1.03241548	      0.01197597	      1.99517199	     -8.45727766	      3.67169528	     -1.78897021	      0.45521228	      0.51622754	     31.99345739	      9.95830797	     18.35626899	     53.01961528	     43.29263555	      7.86834961	     18.44268909	      1.09259132	    -16.36375024	      2.66131468	      2.56498477	    -17.97468999	     -7.55558853	     50.97631945	      4.10268144	     -1.50397767	     58.79864309	     45.33992485	     13.66840094	     -9.49383008
      0.09000000	      3.07228868	     -9.84170750	      9.37332695	     -0.11795217	      1.03237691	      0.01189085	      1.99506005	     -8.45660506	      3.67129805	     -1.78821593	      0.45526611	      0.51604200	     31.99373325	      9.95813736	     18.35630895	     53.01910421	     43.29231927	      7.86787018	     18.44276415	      1.09317226	    -16.36450331	      2.66032430	      2.56549882	    -17.97505118	     -7.55593386	     50.97624827	      4.10321442	     -1.50432687	     58.79855217	     45.34024154	     13.66816593	     -9.49404803
      0.10000000	      3.04388162	     -9.84234713	      9.38405609	     -0.11799170	      1.03235144	      0.01170318	      1.99262404	     -8.45011748	      3.66821935	     -1.78336066	      0.45835831	      0.51372553	     31.99899149	      9.95747295	     18.35556861	     53.01508554	     43.29005779	      7.86425565	     18.44318196	      1.09840927	    -16.37192118	      2.65277510	      2.57173278	    -17.97894073	     -7.55839038	     50.97387422	      4.10970631	     -1.50745237	     58.79895554	     45.34237979	     13.66644527	     -9.49577627
      0.11000000	      3.04368576	     -9.84185155	      9.38392801	     -0.11799313	      1.03235064	      0.01168338	      1.99267855	     -8.45000548	      3.66828254	     -1.78320783	      0.45818813	      0.51395115	     31.99884799	      9.95740166	     18.35565579	     53.01496440	     43.28999169	      7.86416633	     18.44321103	      1.09844671	    -16.37278907	      2.65278683	      2.57095072	    -17.97864792	     -7.55806990	     50.97394830	      4.10964864	     -1.50744514	     58.79887075	     45.34245430	     13.66639691	     -9.49580153
      0.12000000	      3.04235061	     -9.84111418	      9.38360795	     -0.11799616	      1.03235253	      0.01159647	      1.99297028	     -8.44967552	      3.66818520	     -1.78270282	      0.45791253	      0.51427780	     31.99863716	      9.95719589	     18.35584528	     53.01455500	     43.28978986	      7.86387045	     18.44329184	      1.09848159	    -16.37282621	      2.65240192	      2.57157493	    -17.97932288	     -7.55751152	     50.97389018	      4.10966808	     -1.50751570	     58.79869100	     45.34267571	     13.66624930	     -9.49590542
      0.13000000	      3.01411925	     -9.84707030	      9.38234992	     -0.11798101	      1.03238584	      0.01135296	      1.99142582	     -8.44365686	      3.66500659	     -1.77719608	      0.45808678	      0.51170355	     32.00299917	      9.95338070	     18.35591586	     53.00854795	     43.28773912	      7.86022450	     18.44400099	      1.10367114	    -16.38135501	      2.64588688	      2.57599700	    -17.98693570	     -7.56065377	     50.96802556	      4.11395172	     -1.51007924	     58.79824120	     45.34492204	     13.66470103	     -9.49744959
      0.14000000	      3.01350038	     -9.84625042	      9.38209293	     -0.11798066	      1.03238959	      0.01130707	      1.99117469	     -8.44337329	      3.66549098	     -1.77701721	      0.45776252	      0.51248643	     32.00276883	      9.95338777	     18.35604252	     53.00830572	     43.28758652	      7.86002938	     18.44405131	      1.10369107	    -16.38122438	      2.64598326	      2.57666085	    -17.98734720	     -7.55984583	     50.96812318	      4.11399169	     -1.50993976	     58.79815563	     45.34507939	     13.66457041	     -9.49750021
